<svg xmlns="http://www.w3.org/2000/svg" width="124.252" height="22.303" viewBox="0 0 124.252 22.803">
  <g id="Group_36259" data-name="Group 36259" transform="translate(2441 16995.999)">
    <path id="Path_30232" data-name="Path 30232" d="M1121.385,76.728h-.955V76.39h2.308v.338h-.955v2.764h-.4Z" transform="translate(-3442.986 -17064.313)" fill="#54b047"/>
    <path id="Path_30233" data-name="Path 30233" d="M1147.765,77.8c-.02-.438-.04-.951-.04-1.353h-.019c-.106.358-.239.756-.4,1.174l-.557,1.511h-.3l-.5-1.492c-.16-.438-.259-.835-.358-1.213h0c0,.4-.039.894-.059,1.374l-.08,1.332h-.377L1145.3,76h.513l.537,1.511c.12.378.239.74.317,1.057h0c.079-.317.2-.656.338-1.057l.562-1.511h.517l.2,3.122h-.4Z" transform="translate(-3465.03 -17063.963)" fill="#54b047"/>
    <path id="Path_30234" data-name="Path 30234" d="M0,38.944H1.988v-15H0V21.64H7.4c2.626,0,3.66.259,4.675.875A5.5,5.5,0,0,1,14.6,27.328a6.093,6.093,0,0,1-2.749,5.212,6.694,6.694,0,0,1-3.819.914H5.092v5.49H7.5v2.308H0Zm7.36-7.777c2.824,0,3.918-1.571,3.918-3.719a3.628,3.628,0,0,0-1.094-2.665,4.6,4.6,0,0,0-3.242-.835H5.092v7.219Z" transform="translate(-2441 -17015.352)" fill="#54b047"/>
    <path id="Path_30235" data-name="Path 30235" d="M151.107,79.16h1.771V69.195H150.71V66.907h5.012v4.017l.06.059c.561-2.747,2.167-4.374,4.261-4.374a5.978,5.978,0,0,1,1.771.258l-.338,2.765a3.847,3.847,0,0,0-1.432-.219c-2.764,0-4,2.625-4.037,5.211V79.16h2.128v2.308h-7.027Z" transform="translate(-2575.778 -17055.564)" fill="#54b047"/>
    <path id="Path_30236" data-name="Path 30236" d="M268.319,81.021a14.129,14.129,0,0,1-5.132,1.015c-4.813-.04-7.677-3-7.677-7.559,0-4.316,2.426-7.677,7.14-7.677,4.377,0,6.584,3.2,6.584,7.7v.418H258.811c.02,2.825,2.108,4.651,4.993,4.651a10.247,10.247,0,0,0,4.674-1.114Zm-2.367-8.234v-.278a3.342,3.342,0,0,0-3.441-3.422c-2.645,0-3.56,1.929-3.66,3.7Z" transform="translate(-2669.499 -17055.736)" fill="#54b047"/>
    <path id="Path_30237" data-name="Path 30237" d="M392.257,78.82h1.651V68.856H391.92V66.568h4.892V69.79h.06A5.024,5.024,0,0,1,402,66.23c3.421,0,4.953,2.148,4.953,5.629,0,2.326.02,4.651,0,6.977h1.909v2.288h-6.7v-2.3h1.651c.02-2.128,0-4.3,0-6.4,0-2.049-.835-3.56-2.825-3.56-2.148,0-3.9,1.71-3.958,4.416V78.82H399v2.308h-6.743Z" transform="translate(-2791.489 -17055.227)" fill="#54b047"/>
    <path id="Path_30238" data-name="Path 30238" d="M571.429,81.021a14.128,14.128,0,0,1-5.132,1.015c-4.813-.04-7.677-3-7.677-7.559,0-4.316,2.446-7.677,7.14-7.677,4.377,0,6.584,3.2,6.584,7.7v.418H561.921c.02,2.825,2.108,4.651,4.969,4.651a10.3,10.3,0,0,0,4.674-1.114Zm-2.387-8.234v-.278a3.328,3.328,0,0,0-3.441-3.422c-2.665,0-3.558,1.929-3.664,3.7Z" transform="translate(-2940.566 -17055.736)" fill="#54b047"/>
    <path id="Path_30239" data-name="Path 30239" d="M695,36.656h2.207V33.379l3.222-.219v3.5h4.057v2.308h-4.054c-.04,2.326,0,4.614,0,6.8,0,2.666.423,3.342,1.87,3.342a7.1,7.1,0,0,0,2.446-.556l-.12,2.287a7.553,7.553,0,0,1-3.222.74c-3.083,0-4.2-1.213-4.2-4.475,0-1.87-.02-5.589,0-8.115H695V36.662Z" transform="translate(-3062.529 -17025.652)" fill="#54b047"/>
    <path id="Path_30240" data-name="Path 30240" d="M805.536,19.573V7.321H800.25V9.629h2.168v9.965H800.5v2.288h7V19.573ZM803.965,4.316a2.134,2.134,0,0,0,2.148-2.128v-.04a2.148,2.148,0,0,0-4.3-.04v.04a2.122,2.122,0,0,0,2.128,2.15A.02.02,0,0,0,803.965,4.316Z" transform="translate(-3156.653 -16995.979)" fill="#54b047"/>
    <path id="Path_30241" data-name="Path 30241" d="M884.43,69.5a6.5,6.5,0,0,0-1.849-.258c-2.885,0-4.377,2.168-4.377,4.933,0,2.525,1.234,5.211,5.092,5.211a8.713,8.713,0,0,0,3.719-.835l-.159,2.725a10.882,10.882,0,0,1-3.981.756c-5.828,0-7.816-3.9-7.816-7.538,0-4.456,2.749-7.7,7.837-7.7a9.87,9.87,0,0,1,4.137.756v4.116h-2.622Z" transform="translate(-3223.554 -17055.736)" fill="#54b047"/>
    <path id="Path_30242" data-name="Path 30242" d="M1010.241,71.089l-.06-1.725a4.546,4.546,0,0,0-2.386-.478c-1.453,0-2.944.338-2.944,1.771,0,1.114.951,1.432,1.85,1.631l3.56.7c1.65.338,3.54,1.035,3.54,4,0,3.838-3.3,4.853-6.525,4.853a16.408,16.408,0,0,1-5.35-.875V77h2.8l.059,1.929a9.279,9.279,0,0,0,3.1.6c1.492,0,2.943-.556,2.943-2.049,0-1.233-.914-1.63-2.108-1.849L1006.4,75.2c-2.247-.418-4.674-1.253-4.674-4.037,0-3.421,3-4.594,6.185-4.594a15.611,15.611,0,0,1,5.074.951l.06,3.56Z" transform="translate(-3336.834 -17055.531)" fill="#54b047"/>
  </g>
</svg>
